<?xml version="1.0" encoding="UTF-8"?>
<svg version="1.1" xmlns="http://www.w3.org/2000/svg" width="1280" height="839">
<path d="M0 0 C422.4 0 844.8 0 1280 0 C1280 276.87 1280 553.74 1280 839 C857.6 839 435.2 839 0 839 C0 562.13 0 285.26 0 0 Z " fill="#F3EB94" transform="translate(0,0)"/>
<path d="M0 0 C4.0981045 2.83081917 6.3762126 6.63645031 7.9453125 11.34375 C10.04933572 31.14226356 -2.69840935 51.67333575 -14.59375 66.5625 C-20.56052653 73.82183291 -27.06607753 80.54997188 -33.6796875 87.21875 C-34.4742334 88.0226416 -35.2687793 88.8265332 -36.08740234 89.65478516 C-36.83199707 90.39519043 -37.5765918 91.1355957 -38.34375 91.8984375 C-39.34462646 92.89593018 -39.34462646 92.89593018 -40.36572266 93.91357422 C-42.0546875 95.34375 -42.0546875 95.34375 -44.0546875 95.34375 C-44.0546875 96.00375 -44.0546875 96.66375 -44.0546875 97.34375 C-45.95366156 99.01658196 -47.85859966 100.56084453 -49.8671875 102.09375 C-50.48956299 102.57400635 -51.11193848 103.0542627 -51.75317383 103.54907227 C-53.84688433 105.15640914 -55.94994898 106.75088614 -58.0546875 108.34375 C-58.7878418 108.90239746 -59.52099609 109.46104492 -60.27636719 110.03662109 C-75.43964913 121.55745445 -91.196634 131.67692413 -107.7421875 141.09375 C-108.63131836 141.60043213 -109.52044922 142.10711426 -110.43652344 142.62915039 C-112.22292428 143.63201651 -114.02053988 144.61517684 -115.82900238 145.57769012 C-118.02382014 146.77935099 -120.18266234 148.04860949 -122.30466461 149.37462616 C-134.14405635 156.44795959 -145.12616565 156.43634864 -158.62695312 156.25195312 C-160.96425803 156.24969222 -163.30156861 156.2509716 -165.63887024 156.25549316 C-171.93781602 156.257774 -178.2355252 156.21097759 -184.53418541 156.1549015 C-190.4636941 156.10974937 -196.39315975 156.10189555 -202.32281715 156.09368652 C-214.0551232 156.07624675 -225.78698023 156.0231977 -237.51904297 155.94726562 C-248.90476257 155.87365251 -260.2903595 155.81711437 -271.67626953 155.78320312 C-272.7318411 155.78005044 -272.7318411 155.78005044 -273.80873734 155.77683407 C-277.33963131 155.76639256 -280.87052614 155.75628318 -284.40142155 155.74633884 C-313.61946859 155.66362128 -342.837072 155.52230579 -372.0546875 155.34375 C-369.07179155 153.04846008 -366.23582795 151.3687077 -362.8046875 149.8046875 C-361.74008301 149.31556885 -360.67547852 148.8264502 -359.57861328 148.32250977 C-358.41571777 147.79326904 -357.25282227 147.26402832 -356.0546875 146.71875 C-353.50921977 145.55077417 -350.96554779 144.37891011 -348.421875 143.20703125 C-347.7506662 142.8982756 -347.0794574 142.58951996 -346.38790894 142.27140808 C-339.05813015 138.89501716 -331.76361339 135.44475401 -324.47012329 131.99084473 C-296.73477474 118.85726862 -268.89907128 105.94188917 -241.05162048 93.04814148 C-234.88313754 90.19164966 -228.71653176 87.33113437 -222.55078125 84.46875 C-191.17986759 69.90713547 -159.77285661 55.44156325 -128.13296509 41.47206116 C-124.10078276 39.69168828 -120.07044155 37.90733722 -116.04345703 36.11523438 C-16.39767385 -8.22822344 -16.39767385 -8.22822344 0 0 Z " fill="#BD0103" transform="translate(816.0546875,683.65625)"/>
<path d="M0 0 C1.56780856 0.0025423 3.13562781 0.00110655 4.70343018 -0.00398254 C8.93718491 -0.00655357 13.16862131 0.04616627 17.40183949 0.10918307 C21.83396948 0.16563887 26.26615907 0.17074673 30.69859314 0.18141174 C39.08176274 0.20932871 47.46386964 0.28310571 55.84657234 0.37355715 C65.39421179 0.47433099 74.94190335 0.52368212 84.48994267 0.56881607 C104.12154188 0.66276224 123.75168525 0.82773763 143.38256836 1.02172852 C143.38256836 19.17172852 143.38256836 37.32172852 143.38256836 56.02172852 C135.61851445 59.25675098 127.86383221 62.43284358 120.01928711 65.45532227 C118.98423538 65.85574234 117.94918365 66.25616241 116.88276672 66.66871643 C113.61243132 67.93368552 110.34131595 69.19662047 107.07006836 70.45922852 C102.76105142 72.12350011 98.45245509 73.78885428 94.14428711 75.45532227 C93.11248825 75.854272 92.08068939 76.25322174 91.0176239 76.66426086 C85.28097828 78.88618906 79.55733631 81.13639339 73.85131836 83.43579102 C68.99679213 85.38881602 64.13881005 87.24532861 59.19506836 88.95922852 C58.49043457 89.20463379 57.78580078 89.45003906 57.05981445 89.70288086 C55.57457643 90.22009392 54.08889834 90.73604501 52.6027832 91.25073242 C50.42948729 92.00543536 48.25912917 92.76799122 46.08959961 93.53344727 C40.85890899 95.37726571 35.621561 97.20164571 30.38256836 99.02172852 C29.74075623 99.24489746 29.09894409 99.46806641 28.43768311 99.69799805 C23.95932784 101.25468549 19.47905711 102.80572166 14.99700928 104.35174561 C13.49121809 104.87177557 11.98586844 105.39308629 10.48101807 105.91583252 C-3.53637224 110.78242992 -17.65600247 115.27587571 -32.11743164 118.64672852 C-32.98762939 118.85201172 -33.85782715 119.05729492 -34.75439453 119.26879883 C-42.98993562 121.17479194 -51.2754789 122.66947331 -59.61743164 124.02172852 C-60.59196289 124.20606445 -61.56649414 124.39040039 -62.57055664 124.58032227 C-71.52136197 125.8770415 -81.58131664 126.46346471 -89.85571289 122.38500977 C-93.19809529 119.7985542 -95.33284804 117.36518488 -96.21899414 113.18188477 C-96.46511213 80.65328997 -60.97586805 48.91769583 -40.2253418 26.74291992 C-38.5005672 24.89663068 -36.78321329 23.04362232 -35.06665039 21.18969727 C-33.8545633 19.88356615 -32.64232647 18.57757398 -31.42993164 17.27172852 C-30.8841748 16.68206299 -30.33841797 16.09239746 -29.77612305 15.48486328 C-28.69996542 14.32936428 -27.61109828 13.18554747 -26.50874233 12.05501461 C-24.57097394 10.03554695 -24.57097394 10.03554695 -22.85402775 7.72726536 C-16.24148834 -0.19626728 -9.63532812 -0.21970965 0 0 Z " fill="#EF0104" transform="translate(1136.617431640625,-1.021728515625)"/>
<path d="M0 0 C1.18722656 -0.02126953 1.18722656 -0.02126953 2.3984375 -0.04296875 C7.18635553 0.29902539 11.90230975 1.32882904 16.625 2.1875 C16.625 38.1575 16.625 74.1275 16.625 111.1875 C-23.965 111.1875 -64.555 111.1875 -106.375 111.1875 C-108.67496849 105.43757877 -108.77748173 101.09706993 -108.8125 95 C-108.84537109 94.00935547 -108.87824219 93.01871094 -108.91210938 91.99804688 C-108.96950058 84.04153932 -107.08605096 77.54555712 -101.85424805 71.40161133 C-93.67894631 63.31365557 -81.42194027 59.69919569 -70.69750977 56.45263672 C-48.09484899 49.59212284 -25.92540471 40.50565252 -13.375 19.1875 C-11.047875 14.48281695 -8.97384078 9.6737115 -6.94140625 4.8359375 C-4.91686849 0.12043059 -4.83702405 0.03814688 0 0 Z " fill="#5B91C5" transform="translate(1263.375,727.8125)"/>
<path d="M0 0 C1.65092651 0.01015137 1.65092651 0.01015137 3.33520508 0.02050781 C14.44323573 0.15741797 25.40372091 1.0032453 36.4375 2.25 C37.92515869 2.41145508 37.92515869 2.41145508 39.44287109 2.57617188 C89.53036782 8.16161016 140.14410745 17.71226845 188.4375 32.25 C188.4375 32.58 188.4375 32.91 188.4375 33.25 C101.3175 33.25 14.1975 33.25 -75.5625 33.25 C-72.38770696 30.07520696 -70.2304254 28.26229531 -66.484375 26.078125 C-65.00179199 25.21078735 -65.00179199 25.21078735 -63.48925781 24.32592773 C-62.44092773 23.72337158 -61.39259766 23.12081543 -60.3125 22.5 C-59.23581055 21.87746338 -58.15912109 21.25492676 -57.04980469 20.61352539 C-20.79368917 -0.18743243 -20.79368917 -0.18743243 0 0 Z " fill="#A80103" transform="translate(132.5625,805.75)"/>
</svg>
